<svg xmlns="http://www.w3.org/2000/svg" viewBox="0 0 145.5 145.5"><defs>
    <style>.cls-1{fill:#000000;}</style></defs><g id="Layer_2" data-name="Layer 2"><g id="Food_Misc"><g id="sign_questions_q-and-a"><path class="cls-1" d="M72.75,0A72.75,72.75,0,1,0,145.5,72.75,72.75,72.75,0,0,0,72.75,0Zm7.31,121.12A10.82,10.82,0,0,1,72.18,124a10.82,10.82,0,0,1-7.89-2.92,10.37,10.37,0,0,1-3-7.81,10.91,10.91,0,0,1,3-8,10.5,10.5,0,0,1,7.89-3.09,10.51,10.51,0,0,1,7.88,3.09,11,11,0,0,1,3,8A10.41,10.41,0,0,1,80.06,121.12ZM99.41,61.77A26.77,26.77,0,0,1,91.69,72.5,30.26,30.26,0,0,0,85.1,80,31.91,31.91,0,0,0,82,86.73a17.65,17.65,0,0,0-.55,2.55,5.39,5.39,0,0,1-5.19,4.36H66.06a3,3,0,0,1-3-3.17,35.25,35.25,0,0,1,1.46-7.32,51.45,51.45,0,0,1,4.31-10,47,47,0,0,1,8.7-11.05,21.77,21.77,0,0,0,4.88-6.42A15.27,15.27,0,0,0,84,49.82,9.12,9.12,0,0,0,82.82,45a9.84,9.84,0,0,0-3.17-3.5,11.47,11.47,0,0,0-6.5-2,11.08,11.08,0,0,0-7.72,3.25,10.64,10.64,0,0,0-3.07,6.17,5.13,5.13,0,0,1-5,4.2l-8.22.22a5.19,5.19,0,0,1-5.34-5.53,23.75,23.75,0,0,1,.52-3.51,30.41,30.41,0,0,1,2.93-7.89A28,28,0,0,1,52.1,30,28.9,28.9,0,0,1,58,25.35a31.14,31.14,0,0,1,15.12-3.9,30.54,30.54,0,0,1,15.61,4.23,25.24,25.24,0,0,1,9.51,10.08,30.44,30.44,0,0,1,3.41,12.93A31.78,31.78,0,0,1,99.41,61.77Z"/></g></g></g></svg>
