<svg xmlns="http://www.w3.org/2000/svg" viewBox="0 0 160 109.56"><defs><style>.cls-1{fill:#000000;}</style></defs><g id="Layer_2" data-name="Layer 2"><g id="Flatten"><g id="activities_special__event"><path class="cls-1" d="M160,37.58V3.5A3.5,3.5,0,0,0,156.5,0H3.5A3.5,3.5,0,0,0,0,3.5V37.58a17.39,17.39,0,0,1,14.78,17.2A17.39,17.39,0,0,1,0,72v34.08a3.5,3.5,0,0,0,3.5,3.5h153a3.5,3.5,0,0,0,3.5-3.5V72a17.4,17.4,0,0,1,0-34.4Zm-48.82,12.9L100.35,61a4.33,4.33,0,0,0-1.24,3.83l2.55,14.9a4.32,4.32,0,0,1-6.26,4.56L82,77.28a4.33,4.33,0,0,0-4,0l-13.39,7a4.32,4.32,0,0,1-6.26-4.56l2.55-14.9A4.33,4.33,0,0,0,59.65,61L48.82,50.48a4.32,4.32,0,0,1,2.39-7.37l15-2.17a4.32,4.32,0,0,0,3.25-2.37L76.13,25a4.31,4.31,0,0,1,7.74,0l6.7,13.56a4.32,4.32,0,0,0,3.25,2.37l15,2.17A4.32,4.32,0,0,1,111.18,50.48Z"/></g></g></g></svg>