<svg xmlns="http://www.w3.org/2000/svg" viewBox="0 0 144.52 136.35"><defs><style>.cls-1{fill:#000000;}</style></defs><g id="Layer_2" data-name="Layer 2"><g id="Flatten"><g id="speaker_event__shoutout"><path class="cls-1" d="M80.07,18.45a5.54,5.54,0,0,0-7.57-2l-.4.23a5.54,5.54,0,0,0-2,7.57L71,25.81,6,87A3.48,3.48,0,0,0,.47,91.09l14.58,25.08a3.47,3.47,0,0,0,4.77,1.26,3.45,3.45,0,0,0,1.71-3.23L31.64,111l9,23.82a2.37,2.37,0,0,0,3,1.42l7.92-2.88a2.38,2.38,0,0,0,1.41-3c-1.49-5.18-6.87-23.93-6.08-24.18,12.87-4.13,6.06-2,12.87-4.13l46.85-15a5.52,5.52,0,0,0,7.44,1.83l.4-.23a5.53,5.53,0,0,0,2-7.56Z"/><path class="cls-1" d="M101.1,30.41a3.57,3.57,0,0,0,.8.09,3.47,3.47,0,0,0,3.38-2.69l5.53-23.53A3.48,3.48,0,1,0,104,2.69L98.5,26.22A3.49,3.49,0,0,0,101.1,30.41Z"/><path class="cls-1" d="M111.35,39.09a3.47,3.47,0,0,0,3,1.65,3.54,3.54,0,0,0,1.84-.52l20.54-12.73A3.48,3.48,0,1,0,133,21.57L112.48,34.29A3.48,3.48,0,0,0,111.35,39.09Z"/><path class="cls-1" d="M141.84,56,118.3,50.44a3.48,3.48,0,1,0-1.59,6.78l23.53,5.53a3.7,3.7,0,0,0,.8.09,3.48,3.48,0,0,0,.8-6.87Z"/></g></g></g></svg>